<svg width="126" height="30" viewBox="0 0 126 30" fill="none" xmlns="http://www.w3.org/2000/svg">
<path d="M119.845 10.6509C116.871 10.6509 114.541 8.34319 114.541 5.39201C114.541 2.30769 116.827 0 119.845 0C122.862 0 125.148 2.32988 125.148 5.39201C125.148 8.34319 122.818 10.6509 119.845 10.6509ZM119.845 2.57396C118.247 2.57396 117.093 3.77219 117.093 5.4142C117.093 6.94527 118.269 8.09911 119.845 8.09911C121.42 8.09911 122.596 6.94527 122.596 5.4142C122.596 3.77219 121.442 2.57396 119.845 2.57396Z" fill="#206EE8"/>
<path d="M4.1716 19.4157C4.1716 20.2811 5.23669 21.6568 7.63313 21.6568C10.0962 21.6568 10.9172 20.8358 10.9172 19.7485C10.9172 18.6834 10.429 18.0843 8.49852 17.7737L5.72485 17.3299C2.0858 16.753 0.0221893 15.2663 0.0221893 12.3151C0.0221893 9.3861 2.61834 6.78994 7.45562 6.78994C12.6035 6.78994 14.889 10.429 14.889 12.4926H10.7396C10.7396 11.4275 9.51923 10.2515 7.45562 10.2515C5.39201 10.2515 4.34911 11.25 4.34911 12.3151C4.34911 13.1361 5.14793 13.6908 6.76775 13.9349L9.69674 14.3787C13.3358 14.9334 15.2219 16.5976 15.2219 19.7263C15.2219 22.6331 12.7589 25.074 7.61094 25.074C1.0429 25.074 0 20.5917 0 19.3713H4.1716V19.4157Z" fill="#222426"/>
<path d="M19.0607 2.2855H23.3876V8.87574H23.5651C23.8758 8.49852 24.2974 8.14349 24.7411 7.83284C25.54 7.32248 26.7382 6.78994 28.4024 6.78994C32.3743 6.78994 35.3255 9.71894 35.3255 14.2234V24.7633H30.9985V14.5784C30.9985 12.3373 29.4453 10.784 27.2042 10.784C24.963 10.784 23.4098 12.3373 23.4098 14.5784V24.7633H19.0829V2.2855H19.0607Z" fill="#222426"/>
<path d="M56.0946 19.571C55.7174 20.9467 53.5428 25.0962 47.9733 25.0962C42.781 25.0962 38.9866 21.3018 38.9866 15.932C38.9866 10.5843 42.781 6.76775 47.9733 6.76775C52.8106 6.76775 56.605 10.5621 56.605 15.5769C56.605 16.0873 56.5384 16.5089 56.494 16.8195L56.4275 17.3077H43.2914C43.6686 19.7707 45.5103 21.4571 47.9511 21.4571C49.9925 21.4571 51.2352 20.2811 51.5902 19.5488H56.0946V19.571ZM52.2781 14.4009C51.9008 12.1598 50.4141 10.429 47.9511 10.429C45.3328 10.429 43.8017 12.1598 43.2914 14.4009H52.2781Z" fill="#222426"/>
<path d="M60.1672 7.22007H63.8063L64.1613 8.77333H64.3388C64.5385 8.50705 64.7826 8.26297 65.0933 8.01889C65.6036 7.64167 66.3803 7.22007 67.4453 7.22007H70.9069V11.3695H67.8004C65.6258 11.3695 64.5164 12.4789 64.5164 14.6535V24.8384H60.1894V7.22007H60.1672Z" fill="#222426"/>
<path d="M74.6006 7.14497H78.5725L78.9275 9.05326H79.105C79.4157 8.63166 79.8373 8.25444 80.3254 7.94379C81.1464 7.38905 82.3669 6.81213 84.1198 6.81213C88.6021 6.81213 92.2411 10.4512 92.2411 15.9763C92.2411 21.5015 88.6021 25.1405 84.1198 25.1405C82.2781 25.1405 81.0355 24.6302 80.2589 24.0976C79.8151 23.787 79.4379 23.432 79.1272 23.0547H78.9497V30H74.6228V7.14497H74.6006ZM83.4319 10.7618C80.8136 10.7618 78.9497 12.6257 78.9497 15.9541C78.9497 19.2825 80.8136 21.1465 83.4319 21.1465C86.0503 21.1465 87.9142 19.2825 87.9142 15.9541C87.9142 12.6257 86.0503 10.7618 83.4319 10.7618Z" fill="#222426"/>
<path d="M106.997 23.0325H106.82C106.509 23.4098 106.087 23.7648 105.599 24.0754C104.778 24.5858 103.558 25.1183 101.805 25.1183C97.7884 25.1183 95.4142 22.6553 95.4142 19.7707C95.4142 16.3092 97.8328 13.8905 102.67 13.8905H106.642V13.5355C106.642 11.605 105.466 10.2515 103.535 10.2515C101.605 10.2515 100.606 11.4941 100.429 12.4926H96.1021C96.4793 9.5858 98.8313 6.78994 103.535 6.78994C108.018 6.78994 110.969 9.76331 110.969 13.5355V24.7633H107.33L106.997 23.0325ZM106.664 17.1524H103.025C100.784 17.1524 99.7411 18.0177 99.7411 19.3935C99.7411 20.7692 100.74 21.6346 102.515 21.6346C105.133 21.6346 106.664 20.1035 106.664 17.6627V17.1524Z" fill="#222426"/>
</svg>
